<?xml version="1.0" encoding="UTF-8" standalone="yes"?>
<svg version="1.2" width="1242" height="1242" baseProfile="tiny-ps" xmlns="http://www.w3.org/2000/svg">
  <title>bimi-svg-tiny-12-ps</title>
  <path d="M0 0 C409.86 0 819.72 0 1242 0 C1242 409.86 1242 819.72 1242 1242 C832.14 1242 422.28 1242 0 1242 C0 832.14 0 422.28 0 0 Z " fill="#FEFEFE" transform="translate(0,0)"/>
  <path d="M0 0 C202.62 0 405.24 0 614 0 C614 36.96 614 73.92 614 112 C546.02 112 478.04 112 408 112 C408 108.7 408 105.4 408 102 C472.68 102 537.36 102 604 102 C604 71.64 604 41.28 604 10 C407.98 10 211.96 10 10 10 C10 40.36 10 70.72 10 102 C74.68 102 139.36 102 206 102 C206 105.3 206 108.6 206 112 C138.02 112 70.04 112 0 112 C0 75.04 0 38.08 0 0 Z " fill="#0B0B0B" transform="translate(314,562)"/>
  <path d="M0 0 C5.28 -0.103125 10.56 -0.20625 16 -0.3125 C17.65 -0.35802002 19.3 -0.40354004 21 -0.45043945 C33.97250619 -0.65934895 33.97250619 -0.65934895 39.65234375 3.64257812 C43.0227823 7.03744014 44.14695012 10.39624867 44.375 15.0625 C43.86247707 20.44399073 41.94965877 23.42649921 38 27 C38.928125 27.5775 39.85625 28.155 40.8125 28.75 C43.7100103 30.79530139 45.19176928 32.03962228 47 35 C47.74252547 39.4769918 47.54587651 43.67840424 45.8125 47.875 C41.71065189 52.68406331 38.13409602 54.55210324 32 56 C29.44270269 56.15557575 26.87834885 56.21589035 24.31640625 56.1953125 C22.39356812 56.18781982 22.39356812 56.18781982 20.43188477 56.18017578 C18.82498779 56.16196777 17.21809082 56.14375977 15.5625 56.125 C10.426875 56.08375 5.29125 56.0425 0 56 C0 37.52 0 19.04 0 0 Z " fill="#070707" transform="translate(652,590)"/>
  <path d="M0 0 C5.15625 -0.061875 10.3125 -0.12375 15.625 -0.1875 C17.24100098 -0.21481201 18.85700195 -0.24212402 20.52197266 -0.27026367 C22.44855713 -0.28150269 22.44855713 -0.28150269 24.4140625 -0.29296875 C25.7232666 -0.3086792 27.0324707 -0.32438965 28.38134766 -0.34057617 C33.7281524 0.16264827 36.90992768 2.0284138 40.875 5.5625 C43.54468339 9.02704058 43.64574638 12.32498185 43.43359375 16.59375 C42.62612114 21.07485928 40.12847968 23.87152032 37 27 C37.928125 27.5775 38.85625 28.155 39.8125 28.75 C42.71956914 30.80204881 44.19850582 32.0222361 46 35 C46.85507347 40.09962736 46.5557057 44.67113854 44.5625 49.4375 C38.87625506 55.12374494 32.80935384 56.34131863 24.90234375 56.390625 C21.91378079 56.3679636 18.92541316 56.31631005 15.9375 56.25 C10.678125 56.1675 5.41875 56.085 0 56 C0 37.52 0 19.04 0 0 Z " fill="#040404" transform="translate(343,590)"/>
  <path d="M0 0 C10 0 10 0 12.671875 2.2109375 C13.70054687 3.77714844 13.70054687 3.77714844 14.75 5.375 C15.567877 6.56157825 16.38834935 7.74637035 17.2109375 8.9296875 C17.64760742 9.57776367 18.08427734 10.22583984 18.53417969 10.89355469 C21.31401801 14.88829904 24.36683719 18.67618329 27.375 22.5 C28.5500338 24.00998523 29.72453966 25.52038148 30.8984375 27.03125 C33.24095273 30.04230328 35.61619188 33.02023984 38 36 C38.33 24.12 38.66 12.24 39 0 C42.3 0 45.6 0 49 0 C49 18.48 49 36.96 49 56 C40 56 40 56 37.42578125 53.7890625 C36.72839844 52.74492188 36.03101563 51.70078125 35.3125 50.625 C34.48404351 49.43591336 33.65316716 48.24851025 32.8203125 47.0625 C32.37719727 46.41410156 31.93408203 45.76570312 31.47753906 45.09765625 C28.70159711 41.15666266 25.67277814 37.40825319 22.6875 33.625 C21.52258634 32.1397071 20.35974633 30.65278496 19.19921875 29.1640625 C18.70252686 28.52936035 18.20583496 27.8946582 17.6940918 27.24072266 C15.4002466 24.20672478 13.21075908 21.09506271 11 18 C10.67 30.54 10.34 43.08 10 56 C6.7 56 3.4 56 0 56 C0 37.52 0 19.04 0 0 Z " fill="#050505" transform="translate(850,590)"/>
  <path d="M0 0 C3.3 0 6.6 0 10 0 C10.33 8.58 10.66 17.16 11 26 C19.1577347 18.02111441 19.1577347 18.02111441 26.875 9.625 C27.41511719 9.00882813 27.95523438 8.39265625 28.51171875 7.7578125 C29.49303616 6.59877619 30.43520152 5.40526714 31.33203125 4.1796875 C33.76005838 1.17089307 35.10475486 0.10802701 39.04296875 -0.3671875 C42.05335164 -0.37424584 45.00191508 -0.26196859 48 0 C44.82273508 3.81271791 41.600001 7.45516471 38.0625 10.9375 C35.31297992 13.67109622 32.58017172 16.41254969 29.9375 19.25 C29.05384766 20.18585937 29.05384766 20.18585937 28.15234375 21.140625 C26.78716322 22.90510238 26.78716322 22.90510238 27.24584961 24.86547852 C28.12082027 27.34196557 29.28140835 28.95582928 30.9140625 31.01171875 C31.51089844 31.77033203 32.10773437 32.52894531 32.72265625 33.31054688 C33.35042969 34.09494141 33.97820313 34.87933594 34.625 35.6875 C36.45703125 38.00585938 36.45703125 38.00585938 38.2890625 40.32421875 C40.19369254 42.72753582 42.10218327 45.12722335 44.02246094 47.51806641 C44.6621582 48.3229248 45.30185547 49.1277832 45.9609375 49.95703125 C46.54407715 50.68510986 47.1272168 51.41318848 47.72802734 52.16333008 C49 54 49 54 49 56 C44.66267295 57.10740265 41.31455292 57.2914308 37 56 C32.61091391 52.1644221 29.55276404 47.02731433 26.42675781 42.16015625 C24.11127778 38.65444658 21.55845521 35.33058646 19 32 C18.47269287 32.45060791 17.94538574 32.90121582 17.40209961 33.36547852 C16.14436849 34.44026693 14.88663737 35.51505534 13.62890625 36.58984375 C10.92555911 38.77841873 10.92555911 38.77841873 10.68359375 42.81640625 C10.59682952 44.39818499 10.51502431 45.98024149 10.4375 47.5625 C10.39431641 48.36880859 10.35113281 49.17511719 10.30664062 50.00585938 C10.20024738 52.00368805 10.09959112 54.0018207 10 56 C6.7 56 3.4 56 0 56 C0 37.52 0 19.04 0 0 Z " fill="#050505" transform="translate(570,590)"/>
  <path d="M0 0 C0.75152344 0.37382813 1.50304687 0.74765625 2.27734375 1.1328125 C2.84582031 1.41898438 3.41429687 1.70515625 4 2 C2.87548273 4.9719385 1.77706209 7.33440687 0 10 C-2.71498543 9.38268543 -5.13758862 8.54406531 -7.6875 7.4375 C-12.14580803 5.74584294 -16.27396592 5.32219943 -21 6 C-23.61982146 6.98080894 -23.61982146 6.98080894 -25 9 C-25.75021244 11.45632332 -25.75021244 11.45632332 -25 14 C-21.42982745 18.18571954 -16.96750914 18.94412844 -11.8515625 20.2265625 C-5.07101308 22.06567043 0.4554665 24.46134979 5 30 C6.35682449 34.07047347 6.52472254 37.74391717 6 42 C3.1887769 47.51832683 -0.3749793 50.94999172 -6.125 53.25 C-16.85900705 55.32754975 -25.46067461 53.7593937 -34.625 47.75 C-35.800625 46.88375 -35.800625 46.88375 -37 46 C-36.40072174 42.64404172 -35.15377564 40.62198774 -33 38 C-30.65891748 38.87790594 -28.40357142 39.76555274 -26.23828125 41.0234375 C-20.88409456 44.08607573 -16.13755089 44.89766901 -10 44 C-7.74418438 43.31033993 -7.74418438 43.31033993 -6 42 C-5.18129815 38.43793339 -5.18129815 38.43793339 -5 35 C-9.18039811 31.18455728 -14.29384993 30.356859 -19.625 28.98242188 C-25.39941539 27.40619011 -30.06023798 25.51221832 -33.83984375 20.6171875 C-35.95955916 15.83533793 -35.83184846 11.10606169 -35 6 C-32.95791702 1.99302617 -29.96877328 -0.26751289 -26.4375 -2.9375 C-17.13707014 -5.81217832 -8.52950031 -4.30402041 0 0 Z " fill="#080808" transform="translate(807,593)"/>
  <path d="M0 0 C1.95451096 1.56095559 3.38904125 3.0668495 5 5 C3.02 7.31 1.04 9.62 -1 12 C-2.953125 10.73046875 -4.90625 9.4609375 -6.859375 8.19140625 C-11.58193938 5.5629717 -16.70734569 5.37312047 -22 6 C-26.65446979 7.53606757 -30.44517258 10.58709405 -33.1171875 14.68359375 C-35.55477819 21.07957287 -35.16513859 29.27611928 -32.5 35.5625 C-29.93773013 39.72842828 -26.56527159 42.29782829 -22 44 C-14.98375048 45.25847015 -9.97044465 43.57183806 -4 40 C-2.67136116 39.32402585 -1.3391806 38.65484162 0 38 C1.65 39.65 3.3 41.3 5 43 C3.62093985 46.32388856 2.27131019 47.79712016 -0.8125 49.625 C-1.47894531 50.02976562 -2.14539063 50.43453125 -2.83203125 50.8515625 C-10.31192564 54.81388493 -18.41535549 55.43908848 -26.66796875 53.3125 C-35.20399533 49.7864305 -40.15597027 44.65518904 -44.0546875 36.3671875 C-46.82954766 29.41857075 -47.30023642 21.93909261 -44.94140625 14.79296875 C-41.15681664 6.63917814 -36.31218945 0.4561489 -27.8125 -2.9375 C-18.35159148 -5.5474058 -8.54012292 -4.96851017 0 0 Z " fill="#070707" transform="translate(554,593)"/>
  <path d="M0 0 C3.3 0 6.6 0 10 0 C10.47832275 1.09763672 10.95664551 2.19527344 11.44946289 3.32617188 C13.25908046 7.47872873 15.06885061 11.63121907 16.87866211 15.78369141 C17.65539512 17.56590041 18.43208914 19.3481264 19.20874023 21.13037109 C19.96331382 22.86193945 20.71798281 24.59346624 21.4727478 26.32495117 C22.22175068 28.04366904 22.97030735 29.76258143 23.71841431 31.48168945 C25.50622791 35.58738504 27.30231305 39.68895118 29.12060547 43.78125 C29.44854599 44.52193726 29.77648651 45.26262451 30.11436462 46.02575684 C30.72844322 47.41132123 31.34544506 48.795595 31.96583557 50.17834473 C34 54.77642013 34 54.77642013 34 57 C30.7 57 27.4 57 24 57 C19.59390396 48.51909333 15.90092293 39.82221344 12.25 31 C11.36744708 28.87619153 10.4839022 26.75279951 9.59979248 24.62963867 C9.05444038 23.31906982 8.51016465 22.00805242 7.96710205 20.6965332 C7.02848391 18.43430623 6.09572377 16.19144753 5 14 C0.54722623 22.44859243 -3.10229066 31.18555201 -6.75 40 C-7.63255292 42.12380847 -8.5160978 44.24720049 -9.40020752 46.37036133 C-9.94555962 47.68093018 -10.48983535 48.99194758 -11.03289795 50.3034668 C-11.97151609 52.56569377 -12.90427623 54.80855247 -14 57 C-17.3 57 -20.6 57 -24 57 C-21.96570217 50.6132324 -19.6000412 44.51899134 -16.875 38.3984375 C-16.48683105 37.5177359 -16.09866211 36.6370343 -15.69873047 35.72964478 C-14.46960353 32.9430739 -13.23496562 30.15898745 -12 27.375 C-10.76632903 24.58331265 -9.53378089 21.79113135 -8.30126953 18.99893188 C-7.53757313 17.26997508 -6.77297692 15.54141534 -6.00732422 13.81332397 C-3.97365564 9.22173278 -1.9678248 4.6202113 0 0 Z " fill="#070707" transform="translate(730,589)"/>
  <path d="M0 0 C3.3 0 6.6 0 10 0 C12.45443571 5.58232117 14.9080097 11.16502004 17.36083984 16.74804688 C18.19264341 18.64105058 19.02466859 20.53395693 19.85693359 22.42675781 C22.22109308 27.80372705 24.58149815 33.18230883 26.93469238 38.56408691 C27.62057978 40.13242461 28.3072829 41.70040596 28.99499512 43.26794434 C29.86243056 45.24731883 30.7250848 47.22869316 31.5859375 49.2109375 C32.05821777 50.2942334 32.53049805 51.3775293 33.01708984 52.49365234 C34 55 34 55 34 57 C30.7 57 27.4 57 24 57 C19.59390396 48.51909333 15.90092293 39.82221344 12.25 31 C11.36744708 28.87619153 10.4839022 26.75279951 9.59979248 24.62963867 C9.05444038 23.31906982 8.51016465 22.00805242 7.96710205 20.6965332 C7.02848391 18.43430623 6.09572377 16.19144753 5 14 C0.54722623 22.44859243 -3.10229066 31.18555201 -6.75 40 C-7.63255292 42.12380847 -8.5160978 44.24720049 -9.40020752 46.37036133 C-9.94555962 47.68093018 -10.48983535 48.99194758 -11.03289795 50.3034668 C-11.97151609 52.56569377 -12.90427623 54.80855247 -14 57 C-17.3 57 -20.6 57 -24 57 C-21.96570217 50.6132324 -19.6000412 44.51899134 -16.875 38.3984375 C-16.48683105 37.5177359 -16.09866211 36.6370343 -15.69873047 35.72964478 C-14.46960353 32.9430739 -13.23496562 30.15898745 -12 27.375 C-10.76632903 24.58331265 -9.53378089 21.79113135 -8.30126953 18.99893188 C-7.53757313 17.26997508 -6.77297692 15.54141534 -6.00732422 13.81332397 C-3.97365564 9.22173278 -1.9678248 4.6202113 0 0 Z " fill="#070707" transform="translate(470,589)"/>
  <path d="M0 0 C3.3 0 6.6 0 10 0 C10 15.51 10 31.02 10 47 C19.57 47 29.14 47 39 47 C39 49.97 39 52.94 39 56 C26.13 56 13.26 56 0 56 C0 37.52 0 19.04 0 0 Z " fill="#070707" transform="translate(401,590)"/>
  <path d="M0 0 C3.3 0 6.6 0 10 0 C10 18.48 10 36.96 10 56 C6.7 56 3.4 56 0 56 C0 37.52 0 19.04 0 0 Z " fill="#020202" transform="translate(825,590)"/>
  <path d="M0 0 C3.63467079 1.62400184 4.77408696 2.66113044 7 6 C7.61414419 10.25912987 7.43727155 13.97241187 5.75 17.9375 C3.43633869 20.66431511 1.35897841 21.7909264 -2.18359375 22.3359375 C-6.18287366 22.40524911 -8.42740621 22.34111971 -11.9375 20.25 C-14.78206465 17.14683856 -15.82909642 15.31026074 -16.375 11.125 C-15.89861498 7.15512486 -14.46959574 5.10463464 -12 2 C-7.95979629 -0.69346914 -4.74289561 -0.55014255 0 0 Z " fill="#131313" transform="translate(639,658)"/>
  <path d="M0 0 C3.07469523 1.70251719 5.40613254 3.81226508 7 7 C7.37766377 12.00404498 7.11200434 14.99885156 4 19 C1.47450701 21.81689603 -0.71884281 22.2730238 -4.375 22.5 C-9.4446815 22.3494154 -11.55877551 20.61328571 -15 17 C-16.61429923 13.77140153 -16.59570657 10.49006347 -16 7 C-12.16899219 0.32432595 -7.30245772 -1.12722502 0 0 Z " fill="#0B0B0B" transform="translate(544,658)"/>
  <path d="M0 0 C3.07469523 1.70251719 5.40613254 3.81226508 7 7 C7.37766377 12.00404498 7.11200434 14.99885156 4 19 C1.47450701 21.81689603 -0.71884281 22.2730238 -4.375 22.5 C-7.81427659 22.3921679 -9.80530532 21.84195396 -12.5 19.6875 C-15.42018052 16.54830594 -15.89788294 14.90203407 -16.375 10.6875 C-15.87765929 5.79698299 -14.42915508 4.42915508 -11 1 C-7.51556578 -0.74221711 -3.80112955 -0.58675154 0 0 Z " fill="#0B0B0B" transform="translate(666,658)"/>
  <path d="M0 0 C3.56331377 -0.10807017 7.1233422 -0.18735316 10.6875 -0.25 C12.19860352 -0.30027344 12.19860352 -0.30027344 13.74023438 -0.3515625 C21.20280257 -0.45007825 21.20280257 -0.45007825 25.17578125 1.79296875 C27 4 27 4 27.5 7.5625 C27 11 27 11 25.625 12.875 C22.58106957 14.98233645 20.66239941 15.11874942 16.9921875 15.09765625 C16.00605469 15.09443359 15.01992188 15.09121094 14.00390625 15.08789062 C12.97136719 15.07951172 11.93882812 15.07113281 10.875 15.0625 C9.31458984 15.05573242 9.31458984 15.05573242 7.72265625 15.04882812 C5.14841313 15.03701967 2.57419947 15.01908385 0 15 C0 10.05 0 5.1 0 0 Z " fill="#FAFAFA" transform="translate(352,622)"/>
  <path d="M0 0 C3.56331377 -0.10807017 7.1233422 -0.18735316 10.6875 -0.25 C12.19860352 -0.30027344 12.19860352 -0.30027344 13.74023438 -0.3515625 C21.20640855 -0.45012586 21.20640855 -0.45012586 25.16796875 1.796875 C27 4 27 4 27.625 7.5 C27 11 27 11 25.16796875 13.203125 C20.42089001 15.89567274 16.04080812 15.4281011 10.6875 15.25 C9.14739258 15.22292969 9.14739258 15.22292969 7.57617188 15.1953125 C5.05037929 15.14832101 2.52506863 15.07658169 0 15 C0 10.05 0 5.1 0 0 Z " fill="#FCFCFC" transform="translate(662,622)"/>
  <path d="M0 0 C12.66666667 0 12.66666667 0 17 3 C19.8199641 7.22994616 19.79231188 11.03220448 19 16 C16.47323961 19.34625024 14.96066458 20.67977847 11 22 C7.37 22 3.74 22 0 22 C0 14.74 0 7.48 0 0 Z " fill="#141414" transform="translate(600,658)"/>
  <path d="M0 0 C2.70894767 -0.08144943 5.41541263 -0.14070614 8.125 -0.1875 C8.88554687 -0.21263672 9.64609375 -0.23777344 10.4296875 -0.26367188 C15.39737498 -0.32790921 18.65837795 0.31522749 23 3 C24 4 24 4 24.3125 7.3125 C24 11 24 11 22.25 13.375 C17.80786238 16.58321051 13.04550002 16.12284606 7.75 16.0625 C5.1925 16.041875 2.635 16.02125 0 16 C0 10.72 0 5.44 0 0 Z " fill="#EDEDED" transform="translate(352,598)"/>
  <path d="M0 0 C3.2508878 -0.10796306 6.49819179 -0.18729295 9.75 -0.25 C10.67039062 -0.28351562 11.59078125 -0.31703125 12.5390625 -0.3515625 C19.35486307 -0.45034222 19.35486307 -0.45034222 22.61328125 1.82421875 C24.48583513 4.76228216 24.50915576 6.58138277 24 10 C21.97662299 12.98181875 19.36630175 13.92314541 16 15 C13.19006055 15.13760722 10.48998076 15.19011573 7.6875 15.125 C6.94693359 15.11597656 6.20636719 15.10695313 5.44335938 15.09765625 C3.62876533 15.07424213 1.81433929 15.03837615 0 15 C0 10.05 0 5.1 0 0 Z " fill="#F6F6F6" transform="translate(662,599)"/>
  <path d="M0 0 C12.03465347 -0.60781078 12.03465347 -0.60781078 16.375 2.125 C18 5 18 5 18.0625 8.1875 C17 11 17 11 13 13 C14.65 15.97 16.3 18.94 18 22 C16.35 22 14.7 22 13 22 C11.64721885 20.01310269 10.31431695 18.01254782 9 16 C6.37233611 15.03780298 6.37233611 15.03780298 4 15 C4 17.31 4 19.62 4 22 C2.68 22 1.36 22 0 22 C0 14.74 0 7.48 0 0 Z " fill="#151515" transform="translate(678,658)"/>
  <path d="M0 0 C2.63406245 1.31703122 2.82202149 2.4918763 3.9453125 5.18359375 C4.29980469 6.02857422 4.65429688 6.87355469 5.01953125 7.74414062 C5.38433594 8.63294922 5.74914062 9.52175781 6.125 10.4375 C6.68380859 11.76491211 6.68380859 11.76491211 7.25390625 13.11914062 C10 19.72284226 10 19.72284226 10 22 C4.06 22 -1.88 22 -8 22 C-7.29836166 18.49180831 -6.7077252 15.97658183 -5.37109375 12.79296875 C-5.05849609 12.04208984 -4.74589844 11.29121094 -4.42382812 10.51757812 C-4.09833984 9.74865234 -3.77285156 8.97972656 -3.4375 8.1875 C-3.10814453 7.39923828 -2.77878906 6.61097656 -2.43945312 5.79882812 C-1.63041094 3.86416204 -0.81576148 1.93184247 0 0 Z " fill="#070707" transform="translate(734,624)"/>
  <path d="M0 0 C2.27280919 2.07823719 3.60420039 3.90120887 4.82421875 6.72265625 C5.13037109 7.42583984 5.43652344 8.12902344 5.75195312 8.85351562 C6.21504883 9.94696289 6.21504883 9.94696289 6.6875 11.0625 C7.00783203 11.79533203 7.32816406 12.52816406 7.65820312 13.28320312 C10 18.72076559 10 18.72076559 10 21 C4.06 21 -1.88 21 -8 21 C-7.29646184 17.48230922 -6.77035071 15.14096614 -5.37109375 12.01171875 C-5.05849609 11.30595703 -4.74589844 10.60019531 -4.42382812 9.87304688 C-4.09833984 9.15181641 -3.77285156 8.43058594 -3.4375 7.6875 C-2.9434668 6.57665039 -2.9434668 6.57665039 -2.43945312 5.44335938 C-1.63082877 3.62688438 -0.81602884 1.81316069 0 0 Z " fill="#070707" transform="translate(474,625)"/>
  <path d="M0 0 C1.32 0 2.64 0 4 0 C4.04898438 1.04800781 4.09796875 2.09601562 4.1484375 3.17578125 C4.22348143 4.55471354 4.29902857 5.9336185 4.375 7.3125 C4.4059375 8.00279297 4.436875 8.69308594 4.46875 9.40429688 C4.68124919 13.06990789 4.91933861 14.87900792 7 18 C9.5 18.41666667 9.5 18.41666667 12 18 C14.93447357 15.06552643 14.46158423 11.81740544 14.625 7.875 C14.68300781 6.74384766 14.68300781 6.74384766 14.7421875 5.58984375 C14.83651031 3.72696816 14.91934662 1.86351745 15 0 C16.32 0 17.64 0 19 0 C19.08132187 2.56314499 19.14064175 5.12368418 19.1875 7.6875 C19.21263672 8.40873047 19.23777344 9.12996094 19.26367188 9.87304688 C19.32652697 14.46146874 18.86703752 17.36934474 16 21 C12.54968739 22.72515631 8.77283696 22.49677924 5 22 C1.96784325 19.80168636 1.18345602 18.55036806 0 15 C-0.07029121 12.42734182 -0.09370832 9.88358569 -0.0625 7.3125 C-0.05798828 6.61060547 -0.05347656 5.90871094 -0.04882812 5.18554688 C-0.03706927 3.45699462 -0.01913454 1.72848635 0 0 Z " fill="#0F0F0F" transform="translate(555,658)"/>
  <path d="M0 0 C3.375 1.0625 3.375 1.0625 5.3125 2.75 C6.7363395 5.8489448 6.92653827 7.68432812 6.375 11.0625 C4.3125 14 4.3125 14 1.375 16.0625 C-2.47710127 16.12891554 -4.62348005 15.93479157 -7.5625 13.375 C-8.9863395 10.2760552 -9.17653827 8.44067188 -8.625 5.0625 C-5.92665364 1.21940065 -4.75860157 0.08204485 0 0 Z " fill="#F2F2F2" transform="translate(662.625,660.9375)"/>
  <path d="M0 0 C3.375 1.0625 3.375 1.0625 5.3125 2.75 C6.7363395 5.8489448 6.92653827 7.68432812 6.375 11.0625 C4.3125 14 4.3125 14 1.375 16.0625 C-2.47710127 16.12891554 -4.62348005 15.93479157 -7.5625 13.375 C-8.9863395 10.2760552 -9.17653827 8.44067188 -8.625 5.0625 C-5.92665364 1.21940065 -4.75860157 0.08204485 0 0 Z " fill="#F2F2F2" transform="translate(540.625,660.9375)"/>
  <path d="M0 0 C0.7734375 -0.00773438 1.546875 -0.01546875 2.34375 -0.0234375 C4.95159728 0.45844732 5.83871866 1.36229376 7.5 3.375 C7.17 4.035 6.84 4.695 6.5 5.375 C3.53 5.045 0.56 4.715 -2.5 4.375 C-2.83 5.695 -3.16 7.015 -3.5 8.375 C-2.57767578 8.53935547 -2.57767578 8.53935547 -1.63671875 8.70703125 C-0.82847656 8.86558594 -0.02023437 9.02414062 0.8125 9.1875 C1.61300781 9.33832031 2.41351562 9.48914063 3.23828125 9.64453125 C5.79709677 10.47095353 6.92230944 11.20631786 8.5 13.375 C8.375 16.9375 8.375 16.9375 7.5 20.375 C3.50706063 23.03695958 0.19736163 23.10419332 -4.5 22.375 C-7.0625 20.375 -7.0625 20.375 -8.5 18.375 C-7.51 17.715 -6.52 17.055 -5.5 16.375 C-4.51 17.035 -3.52 17.695 -2.5 18.375 C-0.16800612 18.45405064 2.16832622 18.46298769 4.5 18.375 C4.05966008 16.39479579 4.05966008 16.39479579 2.5 14.375 C0.49339671 13.43546753 -1.51101123 12.74655899 -3.625 12.0859375 C-5.5 11.375 -5.5 11.375 -7.5 9.375 C-8.05829517 4.12702536 -8.05829517 4.12702536 -6.26171875 1.70703125 C-4.03861647 0.02614904 -2.76393378 -0.02763934 0 0 Z " fill="#101010" transform="translate(707.5,657.625)"/>
  <path d="M0 0 C3.4375 0.9375 3.4375 0.9375 5.375 2.0625 C7.13687187 5.17168565 6.91909369 7.44594577 6.4375 10.9375 C4.12552361 14.04215401 2.69466828 15.66153623 -1.125 16.5 C-4.49723771 15.7217913 -5.6197794 14.81560459 -7.5625 11.9375 C-8.38693434 7.87362165 -8.16831932 4.93104368 -6 1.375 C-3.5625 -0.0625 -3.5625 -0.0625 0 0 Z " fill="#F7F7F7" transform="translate(635.5625,661.0625)"/>
  <path d="M0 0 C7.28358209 -0.35820896 7.28358209 -0.35820896 10 1 C11.63102777 4.26205554 11.51981506 7.43555389 11 11 C10 13 10 13 8 14 C5.28114681 14.23059307 2.74008408 14.13475823 0 14 C0 9.38 0 4.76 0 0 Z " fill="#FDFDFD" transform="translate(604,662)"/>
  <path d="M0 0 C5.94 0 11.88 0 18 0 C18 1.32 18 2.64 18 4 C15.69 4 13.38 4 11 4 C11 9.94 11 15.88 11 22 C9.68 22 8.36 22 7 22 C7 15.73 7 9.46 7 3 C4.69 3 2.38 3 0 3 C0 2.01 0 1.02 0 0 Z " fill="#121212" transform="translate(578,658)"/>
  <path d="M0 0 C2.97 0 5.94 0 9 0 C9.625 2.375 9.625 2.375 10 5 C8 7 8 7 6.0546875 7.1953125 C4.03645833 7.13020833 2.01822917 7.06510417 0 7 C0 4.69 0 2.38 0 0 Z " fill="#EEEEEE" transform="translate(682,662)"/>
</svg>